<svg width="312" height="397" viewBox="0 0 312 397" fill="none" xmlns="http://www.w3.org/2000/svg">
<path d="M167.664 14.408C166.981 13.384 165.957 11.848 164.592 9.79999C163.568 7.41064 163.397 5.87464 164.08 5.19199C164.763 4.50931 165.787 4.67997 167.152 5.70398C168.859 6.72799 169.883 7.41065 170.224 7.75198C176.368 12.1893 182 18.3333 187.12 26.184C192.581 34.0347 197.36 42.7387 201.456 52.296C205.893 61.512 209.819 71.24 213.232 81.48C216.645 91.72 219.376 101.448 221.424 110.664C226.544 133.192 230.811 155.379 234.224 177.224C237.979 199.069 239.856 221.597 239.856 244.808C239.856 245.491 239.856 247.539 239.856 250.952C240.197 254.365 239.685 256.413 238.32 257.096C237.296 256.413 236.101 254.707 234.736 251.976C233.712 249.245 233.029 247.368 232.688 246.344C228.592 233.715 224.837 219.379 221.424 203.336C218.352 186.952 215.451 172.104 212.72 158.792C210.672 148.552 208.795 138.824 207.088 129.608C205.381 120.051 203.333 110.835 200.944 101.96C198.896 93.0853 196.336 84.2107 193.264 75.336C190.533 66.12 187.12 56.5627 183.024 46.664C182.341 45.2987 181.147 42.9093 179.44 39.496C178.075 36.0826 176.539 32.6693 174.832 29.256C173.125 25.8427 171.589 22.7707 170.224 20.04C168.859 16.968 168.005 15.0906 167.664 14.408ZM290.544 393.8C286.789 391.752 284.229 390.387 282.864 389.704C281.499 389.363 278.939 387.997 275.184 385.608C266.992 380.829 259.483 374.685 252.656 367.176C245.829 359.325 239.685 350.792 234.224 341.576C228.763 332.36 223.813 322.632 219.376 312.392C215.28 301.811 211.696 291.4 208.624 281.16C201.797 285.597 193.605 288.328 184.048 289.352C174.832 290.035 166.299 290.376 158.448 290.376C148.549 290.376 138.651 290.035 128.752 289.352C119.195 288.669 109.467 288.328 99.568 288.328C90.0107 306.077 80.9653 323.315 72.432 340.04C64.24 356.424 57.7547 371.784 52.976 386.12C52.976 386.461 52.8053 387.144 52.464 388.168C52.1227 389.533 51.6107 390.216 50.928 390.216C49.904 390.216 49.392 389.021 49.392 386.632C49.392 384.243 49.392 382.707 49.392 382.024C49.392 368.371 52.6347 353.181 59.12 336.456C65.9467 319.389 73.456 302.664 81.648 286.28L73.968 285.768C71.92 290.547 69.0187 297.203 65.264 305.736C61.8507 314.269 58.4373 323.144 55.024 332.36C51.952 341.576 49.0507 350.451 46.32 358.984C43.9307 367.517 42.736 374.344 42.736 379.464C42.736 380.488 42.224 381 41.2 381C39.8347 381 38.8107 379.976 38.128 377.928C37.4453 375.539 36.7627 372.979 36.08 370.248C35.7387 367.517 35.3973 364.787 35.056 362.056C35.056 358.984 35.056 356.936 35.056 355.912C35.056 343.965 36.592 331.507 39.664 318.536C42.736 305.224 46.832 293.107 51.952 282.184L45.296 281.16C42.224 288.669 39.3227 296.179 36.592 303.688C33.8613 310.856 31.472 318.365 29.424 326.216C29.424 326.899 29.2533 327.752 28.912 328.776C28.5707 329.8 28.0587 330.141 27.376 329.8C26.6933 328.435 26.1813 326.899 25.84 325.192C25.84 323.144 25.84 321.437 25.84 320.072C25.84 305.736 28.4 291.912 33.52 278.6C35.2267 275.187 36.9333 273.48 38.64 273.48C45.808 271.432 52.976 270.237 60.144 269.896C67.6533 269.555 75.3333 269.384 83.184 269.384C100.251 269.384 117.147 270.749 133.872 273.48C150.597 275.869 167.323 277.064 184.048 277.064C192.24 277.064 199.749 276.381 206.576 275.016L205.552 266.824C201.797 267.848 197.701 268.531 193.264 268.872C189.168 269.213 185.243 269.384 181.488 269.384C168.176 269.384 154.352 268.019 140.016 265.288C126.021 262.557 112.539 259.315 99.568 255.56C98.8853 254.877 97.52 254.365 95.472 254.024C93.424 253.341 92.4 252.488 92.4 251.464C92.4 250.781 93.424 250.269 95.472 249.928C97.52 249.245 98.8853 248.904 99.568 248.904C104.347 248.563 108.955 248.392 113.392 248.392C118.171 248.051 122.949 247.88 127.728 247.88C135.579 247.88 143.429 248.051 151.28 248.392C159.131 248.392 167.152 248.392 175.344 248.392C179.44 248.392 183.707 248.392 188.144 248.392C192.581 248.392 196.848 248.221 200.944 247.88L199.92 242.248H193.264C176.88 242.248 160.496 240.712 144.112 237.64C128.069 234.568 111.856 233.032 95.472 233.032C81.4773 233.032 69.0187 234.739 58.096 238.152C47.5147 241.565 38.2987 245.491 30.448 249.928C22.9387 254.365 16.7947 258.803 12.016 263.24C7.23733 267.677 3.824 270.92 1.776 272.968C1.09333 273.309 0.752001 273.48 0.752001 273.48C0.410667 273.48 0.240001 273.139 0.240001 272.456C0.240001 272.115 0.410667 271.773 0.752001 271.432C6.896 259.485 14.4053 249.587 23.28 241.736C32.1547 233.544 43.0773 227.4 56.048 223.304C69.0187 195.656 82.3307 168.179 95.984 140.872C109.979 113.565 124.656 86.6 140.016 59.976C140.357 59.2933 141.04 58.2693 142.064 56.904C143.088 55.1973 144.112 54.344 145.136 54.344C145.477 54.6853 145.648 55.0267 145.648 55.368V56.392C145.648 59.1227 145.477 61.1706 145.136 62.536C138.651 90.184 129.093 116.808 116.464 142.408C103.835 168.008 90.864 193.267 77.552 218.184L87.28 217.672C88.304 215.624 90.864 211.187 94.96 204.36C99.3973 197.533 104.005 190.536 108.784 183.368C113.904 175.859 118.512 169.203 122.608 163.4C126.704 157.256 129.264 154.184 130.288 154.184L130.8 155.72C130.8 157.427 129.776 161.181 127.728 166.984C125.68 172.787 123.291 179.101 120.56 185.928C117.829 192.755 115.099 199.24 112.368 205.384C109.979 211.187 108.272 215.283 107.248 217.672C109.296 217.672 111.344 217.843 113.392 218.184C115.44 218.184 117.488 218.184 119.536 218.184C125.68 205.896 132.165 193.096 138.992 179.784C146.16 166.131 152.304 152.307 157.424 138.312C162.544 124.317 165.957 110.152 167.664 95.816C169.712 81.48 168.688 67.3146 164.592 53.32C164.592 55.0266 164.08 58.44 163.056 63.56C162.373 68.68 161.349 74.1413 159.984 79.944C158.619 85.4053 157.253 90.3547 155.888 94.792C154.523 98.888 153.157 100.936 151.792 100.936C150.768 100.936 150.256 100.253 150.256 98.888C150.597 97.5227 150.768 96.6693 150.768 96.328C150.768 87.4533 151.28 78.7493 152.304 70.216C153.669 61.3413 154.352 52.4667 154.352 43.592C154.352 31.6453 152.475 20.04 148.72 8.77597C148.72 8.43464 148.208 7.06932 147.184 4.67999C146.16 1.94932 146.501 0.583984 148.208 0.583984C148.891 0.583984 150.085 1.43732 151.792 3.14398C155.205 6.55731 158.448 11.1653 161.52 16.968C164.933 22.7707 168.005 29.0853 170.736 35.912C173.467 42.3973 176.027 48.8826 178.416 55.368C180.805 61.8533 182.683 67.3146 184.048 71.752C188.485 86.4293 192.069 101.277 194.8 116.296C197.872 130.973 200.432 145.821 202.48 160.84C204.869 175.517 207.259 190.365 209.648 205.384C212.037 220.403 214.768 235.251 217.84 249.928C220.912 264.264 224.496 278.259 228.592 291.912C233.029 305.565 238.32 318.536 244.464 330.824C250.608 343.112 257.605 354.547 265.456 365.128C273.648 375.368 283.035 384.413 293.616 392.264C295.323 393.971 295.835 394.995 295.152 395.336C294.811 396.019 293.275 395.507 290.544 393.8ZM289.52 350.28C289.861 352.328 289.691 353.352 289.008 353.352C288.325 353.011 287.472 352.328 286.448 351.304C285.765 350.28 284.912 349.085 283.888 347.72C283.205 346.355 282.864 345.501 282.864 345.16C274.672 330.141 268.187 314.952 263.408 299.592C258.629 283.891 254.875 268.189 252.144 252.488C249.413 236.445 247.024 220.403 244.976 204.36C243.269 187.976 241.051 171.421 238.32 154.696C235.931 137.629 232.688 120.392 228.592 102.984C224.496 85.576 218.693 67.8266 211.184 49.736C210.843 49.0533 210.331 47.8586 209.648 46.152C208.965 44.4453 208.965 43.4213 209.648 43.08C210.331 43.08 211.184 43.592 212.208 44.616L214.256 46.664C221.765 55.5386 228.421 67.3146 234.224 81.992C240.027 96.6693 245.147 112.371 249.584 129.096C254.021 145.821 257.605 162.376 260.336 178.76C263.408 195.144 265.797 209.48 267.504 221.768C270.235 241.224 273.136 261.704 276.208 283.208C279.28 304.712 283.205 325.021 287.984 344.136L289.52 350.28ZM137.456 220.232C147.355 221.256 157.083 222.451 166.64 223.816C176.539 225.181 186.437 226.205 196.336 226.888C192.581 208.797 189.339 190.877 186.608 173.128C183.877 155.379 181.317 137.288 178.928 118.856C174.491 136.605 168.347 153.843 160.496 170.568C152.987 187.293 145.307 203.848 137.456 220.232ZM305.904 388.168C299.077 385.096 293.104 382.195 287.984 379.464C282.864 376.392 278.427 372.296 274.672 367.176C268.869 359.325 264.261 351.475 260.848 343.624C257.776 335.773 255.216 328.435 253.168 321.608C252.485 318.877 251.803 315.805 251.12 312.392C250.779 308.979 250.949 307.272 251.632 307.272C252.997 307.272 254.704 309.491 256.752 313.928C258.8 318.365 260.677 322.12 262.384 325.192C267.504 335.773 273.989 346.525 281.84 357.448C289.691 368.029 298.224 376.733 307.44 383.56C310.171 385.949 311.024 387.485 310 388.168C308.976 388.851 307.611 388.851 305.904 388.168ZM3.312 289.864C3.312 289.864 2.97067 289.864 2.288 289.864H1.776C1.776 288.84 1.94667 287.816 2.288 286.792C2.62933 285.768 2.97067 284.744 3.312 283.72C6.04267 277.917 8.60267 273.651 10.992 270.92C13.7227 267.848 17.9893 264.605 23.792 261.192C27.2053 259.144 31.984 257.096 38.128 255.048C44.272 253 49.2213 251.976 52.976 251.976C53.6587 251.976 54.512 252.147 55.536 252.488C56.9013 252.488 57.584 253 57.584 254.024C57.584 255.048 55.7067 256.413 51.952 258.12C48.5387 259.827 46.32 261.021 45.296 261.704C32.3253 269.555 22.768 275.528 16.624 279.624C10.48 283.72 6.04267 287.133 3.312 289.864Z" fill="black"/>
</svg>
